PathFileType	4	(X/Y/Z)	C:\Users\WrightLab\Desktop\Jo\P1.2Trial21.trc
DataRate	CameraRate	NumFrames	NumMarkers	Units	OrigDataRate	OrigDataStartFrame	OrigNumFrames
100.00	100.00	       83	19	mm	100.00	578	       660
Frame#	Time	Headset_Front			Headset_Back			Headset_Left			Headset_Right			Left_Shoulder			Right_Shoulder			Sternum			C7			Left Elbow			Right Elbow			Left Wrist			Right Wrist			Left ASIS			Right ASIS			S2			Left Knee			Right Knee			Left Ankle			Right Ankle			
		X1	Y1	Z1	X2	Y2	Z2	X3	Y3	Z3	X4	Y4	Z4	X5	Y5	Z5	X6	Y6	Z6	X7	Y7	Z7	X8	Y8	Z8	X9	Y9	Z9	X10	Y10	Z10	X11	Y11	Z11	X12	Y12	Z12	X13	Y13	Z13	X14	Y14	Z14	X15	Y15	Z15	X16	Y16	Z16	X17	Y17	Z17	X18	Y18	Z18	X19	Y19	Z19	

578	5.770																																		-318.65698	823.96588	2074.17041																						
579	5.780																																		-305.52194	826.92920	2084.88916																						
580	5.790																																		-292.33066	829.79553	2097.39941																						
581	5.800																																		-280.79889	832.88586	2108.74463																						
582	5.810																																		-269.85846	835.67987	2120.53833																						
583	5.820																																		-259.35324	838.24677	2132.58057																						
584	5.830																																		-249.56996	841.24591	2146.32544																						
585	5.840																																		-242.02473	844.20410	2156.70361																						
586	5.850																																		-233.85703	846.63324	2172.38623																						
587	5.860																																		-226.70956	849.00043	2183.72778																						
588	5.870																																		-220.49507	851.92029	2194.80396																						
589	5.880																																		-214.95287	855.01874	2206.85034																						
590	5.890																																		-209.49422	856.18250	2218.12451																						
591	5.900																																		-204.47505	858.46960	2229.79565																						
592	5.910																																		-199.46542	860.48975	2241.01538																						
593	5.920																																		-195.13206	863.37402	2251.77759																						
594	5.930																																		-190.53421	865.82684	2262.90894																						
595	5.940																																		-185.97777	867.94366	2273.52295																						
596	5.950																																		-182.01845	870.32062	2284.29565																						
597	5.960																																		-177.55960	871.77045	2293.81055																						
598	5.970																																		-173.88071	872.77338	2303.80029																						
599	5.980																																		-170.29761	874.36713	2314.88403																						
600	5.990																																		-167.15433	874.96802	2323.41309																						
601	6.000																																		-164.45610	875.57269	2334.69360																						
602	6.010																																		-162.38179	875.42139	2343.99365																						
603	6.020																																		-160.86024	875.36859	2354.64307																						
604	6.030																																		-159.78990	874.41632	2364.64697																						
605	6.040																																		-159.68593	873.05469	2375.30542																						
606	6.050																																		-159.84288	871.26282	2386.20605																						
607	6.060																																		-160.83986	868.63489	2396.78223																						
608	6.070																																		-162.16383	866.24194	2407.72534																						
609	6.080																																		-164.51024	863.12823	2418.73706																						
610	6.090																																		-167.01314	859.73328	2430.01196																						
611	6.100																																		-170.21255	855.87708	2439.56323																						
612	6.110																																		-174.24686	852.11365	2450.44531																						
613	6.120																																		-178.61407	848.26477	2460.62207																						
614	6.130																																		-183.63699	844.51569	2470.22095																						
615	6.140																																		-190.17119	839.20367	2477.25391																						
616	6.150																																		-196.21687	835.48315	2486.79419																						
617	6.160																																		-202.57175	831.24524	2495.67285																						
618	6.170																																		-208.92668	827.76593	2503.22778																						
619	6.180																																		-215.24042	823.39813	2510.28394																						
620	6.190																																		-222.89552	821.03674	2518.05151																						
621	6.200																																		-229.61320	818.02246	2523.51245																						
622	6.210																																		-237.07242	815.70453	2529.47559																						
623	6.220																																		-244.33981	813.77661	2533.93555																						
624	6.230																																		-251.70648	811.71826	2538.36108																						
625	6.240																																		-259.31903	810.58307	2543.05420																						
626	6.250																																		-265.63031	809.17169	2546.01465																						
627	6.260																																		-270.97235	808.22729	2548.43750																						
628	6.270																																		-275.77969	806.99426	2550.11743																						
629	6.280																																		-279.37396	805.66217	2551.88403																						
630	6.290																																		-282.69806	804.29834	2553.49707																						
631	6.300																																		-284.86047	803.27313	2554.35303																						
632	6.310																																		-286.27399	801.71661	2555.24756																						
633	6.320																																		-286.59961	800.21661	2554.86670																						
634	6.330																																		-286.75195	799.51233	2554.67749																						
635	6.340																																		-285.99631	799.32080	2554.07593																						
636	6.350																																		-284.16245	798.67963	2552.90283																						
637	6.360																																		-281.84756	798.21307	2550.99170																						
638	6.370																																		-278.89905	798.63690	2548.88110																						
639	6.380																																		-275.58435	799.19763	2547.23071																						
640	6.390																																		-271.85709	799.85516	2544.70605																						
641	6.400																																		-266.78888	800.03302	2541.28442																						
642	6.410																																		-261.95993	800.93555	2538.87183																						
643	6.420																																		-256.75540	801.39453	2535.71997																						
644	6.430																																		-251.05682	802.55682	2532.73071																						
645	6.440																																		-244.89470	803.28412	2528.74780																						
646	6.450																																		-238.64366	804.19147	2524.84424																						
647	6.460																																		-231.96878	805.24329	2520.30957																						
648	6.470																																		-225.00117	806.32648	2515.24219																						
649	6.480																																		-218.26491	807.31311	2510.82422																						
650	6.490																																		-212.00571	808.61359	2507.04785																						
651	6.500																																		-204.61569	809.64374	2500.82056																						
652	6.510																																		-197.66156	810.66315	2495.64795																						
653	6.520																																		-191.22188	812.60968	2490.97119																						
654	6.530																																		-184.26064	814.17816	2485.31055																						
655	6.540																																		-177.43887	815.39154	2479.62622																						
656	6.550																																		-170.74298	817.43274	2474.40454																						
657	6.560																																		-163.89561	818.67926	2467.69238																						
658	6.570																																		-157.17200	820.05023	2461.58374																						
659	6.580																																		-151.32428	821.24213	2454.91626																						
660	6.590																																		-145.46245	823.75720	2449.23462																						
